<mxfile host="Electron" agent="Mozilla/5.0 (Windows NT 10.0; Win64; x64) AppleWebKit/537.36 (KHTML, like Gecko) draw.io/27.0.5 Chrome/134.0.6998.205 Electron/35.3.0 Safari/537.36" version="27.0.5">
  <diagram name="Page-1" id="4Pe4ApwGneUvlaL52mOm">
    <mxGraphModel dx="868" dy="522" grid="1" gridSize="10" guides="1" tooltips="1" connect="1" arrows="1" fold="1" page="1" pageScale="1" pageWidth="850" pageHeight="1100" math="0" shadow="0">
      <root>
        <mxCell id="0" />
        <mxCell id="1" parent="0" />
        <mxCell id="gVY9wtPqPmXzFbUHcXMq-1" value="" style="rounded=0;whiteSpace=wrap;html=1;fillStyle=hatch;" parent="1" vertex="1">
          <mxGeometry x="30" y="100" width="110" height="470" as="geometry" />
        </mxCell>
        <mxCell id="gVY9wtPqPmXzFbUHcXMq-3" value="" style="rounded=1;whiteSpace=wrap;html=1;fillStyle=hatch;strokeColor=#FFB570;" parent="1" vertex="1">
          <mxGeometry x="190" y="150" width="120" height="420" as="geometry" />
        </mxCell>
        <mxCell id="gVY9wtPqPmXzFbUHcXMq-4" value="" style="rounded=1;whiteSpace=wrap;html=1;fillStyle=auto;fillColor=none;" parent="1" vertex="1">
          <mxGeometry x="350" y="150" width="120" height="420" as="geometry" />
        </mxCell>
        <mxCell id="gVY9wtPqPmXzFbUHcXMq-6" value="&lt;font style=&quot;font-size: 19px;&quot;&gt;Sources&lt;/font&gt;" style="rounded=0;whiteSpace=wrap;html=1;strokeColor=none;" parent="1" vertex="1">
          <mxGeometry x="45" y="80" width="80" height="40" as="geometry" />
        </mxCell>
        <mxCell id="gVY9wtPqPmXzFbUHcXMq-18" style="edgeStyle=orthogonalEdgeStyle;rounded=0;orthogonalLoop=1;jettySize=auto;html=1;entryX=0;entryY=0.5;entryDx=0;entryDy=0;" parent="1" source="gVY9wtPqPmXzFbUHcXMq-7" target="gVY9wtPqPmXzFbUHcXMq-14" edge="1">
          <mxGeometry relative="1" as="geometry" />
        </mxCell>
        <mxCell id="gVY9wtPqPmXzFbUHcXMq-21" style="edgeStyle=orthogonalEdgeStyle;rounded=0;orthogonalLoop=1;jettySize=auto;html=1;entryX=0;entryY=0.5;entryDx=0;entryDy=0;" parent="1" source="gVY9wtPqPmXzFbUHcXMq-7" target="gVY9wtPqPmXzFbUHcXMq-12" edge="1">
          <mxGeometry relative="1" as="geometry" />
        </mxCell>
        <mxCell id="gVY9wtPqPmXzFbUHcXMq-22" style="edgeStyle=orthogonalEdgeStyle;rounded=0;orthogonalLoop=1;jettySize=auto;html=1;entryX=0;entryY=0.5;entryDx=0;entryDy=0;" parent="1" source="gVY9wtPqPmXzFbUHcXMq-7" target="gVY9wtPqPmXzFbUHcXMq-13" edge="1">
          <mxGeometry relative="1" as="geometry" />
        </mxCell>
        <mxCell id="gVY9wtPqPmXzFbUHcXMq-7" value="&lt;font style=&quot;font-size: 15px;&quot;&gt;CRM&lt;/font&gt;" style="image;aspect=fixed;html=1;points=[];align=center;fontSize=12;image=img/lib/azure2/general/Folder_Blank.svg;" parent="1" vertex="1">
          <mxGeometry x="60.36" y="250" width="49.29" height="40" as="geometry" />
        </mxCell>
        <mxCell id="gVY9wtPqPmXzFbUHcXMq-23" style="edgeStyle=orthogonalEdgeStyle;rounded=0;orthogonalLoop=1;jettySize=auto;html=1;entryX=0;entryY=0.5;entryDx=0;entryDy=0;" parent="1" source="gVY9wtPqPmXzFbUHcXMq-8" target="gVY9wtPqPmXzFbUHcXMq-15" edge="1">
          <mxGeometry relative="1" as="geometry" />
        </mxCell>
        <mxCell id="gVY9wtPqPmXzFbUHcXMq-24" style="edgeStyle=orthogonalEdgeStyle;rounded=0;orthogonalLoop=1;jettySize=auto;html=1;entryX=0;entryY=0.5;entryDx=0;entryDy=0;" parent="1" source="gVY9wtPqPmXzFbUHcXMq-8" target="gVY9wtPqPmXzFbUHcXMq-16" edge="1">
          <mxGeometry relative="1" as="geometry" />
        </mxCell>
        <mxCell id="gVY9wtPqPmXzFbUHcXMq-25" style="edgeStyle=orthogonalEdgeStyle;rounded=0;orthogonalLoop=1;jettySize=auto;html=1;entryX=0;entryY=0.5;entryDx=0;entryDy=0;" parent="1" source="gVY9wtPqPmXzFbUHcXMq-8" target="gVY9wtPqPmXzFbUHcXMq-17" edge="1">
          <mxGeometry relative="1" as="geometry" />
        </mxCell>
        <mxCell id="gVY9wtPqPmXzFbUHcXMq-8" value="&lt;span style=&quot;font-size: 15px;&quot;&gt;ERP&lt;/span&gt;" style="image;aspect=fixed;html=1;points=[];align=center;fontSize=12;image=img/lib/azure2/general/Folder_Blank.svg;" parent="1" vertex="1">
          <mxGeometry x="60.36" y="380" width="49.29" height="40" as="geometry" />
        </mxCell>
        <mxCell id="gVY9wtPqPmXzFbUHcXMq-9" value="&lt;font style=&quot;font-size: 14px;&quot;&gt;Bronze Layer&lt;/font&gt;" style="rounded=1;whiteSpace=wrap;html=1;fillStyle=solid;fillColor=#FFB570;fontColor=#000000;" parent="1" vertex="1">
          <mxGeometry x="190" y="100" width="120" height="40" as="geometry" />
        </mxCell>
        <mxCell id="gVY9wtPqPmXzFbUHcXMq-10" value="Bronze Layer" style="rounded=1;whiteSpace=wrap;html=1;fillStyle=auto;fillColor=#FFFFFF;fontColor=#000000;" parent="1" vertex="1">
          <mxGeometry x="350" y="100" width="120" height="40" as="geometry" />
        </mxCell>
        <mxCell id="H48lbSs6PlIa-w5kw-XM-9" style="edgeStyle=orthogonalEdgeStyle;rounded=0;orthogonalLoop=1;jettySize=auto;html=1;entryX=0;entryY=0.5;entryDx=0;entryDy=0;" parent="1" source="gVY9wtPqPmXzFbUHcXMq-12" target="H48lbSs6PlIa-w5kw-XM-1" edge="1">
          <mxGeometry relative="1" as="geometry" />
        </mxCell>
        <mxCell id="gVY9wtPqPmXzFbUHcXMq-12" value="crm_sales_details" style="rounded=1;whiteSpace=wrap;html=1;fillStyle=solid;fillColor=#FFB570;fontColor=#000000;" parent="1" vertex="1">
          <mxGeometry x="197.5" y="230" width="105" height="40" as="geometry" />
        </mxCell>
        <mxCell id="H48lbSs6PlIa-w5kw-XM-10" style="edgeStyle=orthogonalEdgeStyle;rounded=0;orthogonalLoop=1;jettySize=auto;html=1;entryX=0;entryY=0.5;entryDx=0;entryDy=0;" parent="1" source="gVY9wtPqPmXzFbUHcXMq-13" target="H48lbSs6PlIa-w5kw-XM-2" edge="1">
          <mxGeometry relative="1" as="geometry" />
        </mxCell>
        <mxCell id="gVY9wtPqPmXzFbUHcXMq-13" value="crm_prd_info" style="rounded=1;whiteSpace=wrap;html=1;fillStyle=solid;fillColor=#FFB570;fontColor=#000000;" parent="1" vertex="1">
          <mxGeometry x="197.5" y="280" width="105" height="40" as="geometry" />
        </mxCell>
        <mxCell id="H48lbSs6PlIa-w5kw-XM-7" style="edgeStyle=orthogonalEdgeStyle;rounded=0;orthogonalLoop=1;jettySize=auto;html=1;exitX=1;exitY=0.5;exitDx=0;exitDy=0;entryX=0;entryY=0.5;entryDx=0;entryDy=0;" parent="1" source="gVY9wtPqPmXzFbUHcXMq-14" target="H48lbSs6PlIa-w5kw-XM-3" edge="1">
          <mxGeometry relative="1" as="geometry" />
        </mxCell>
        <mxCell id="gVY9wtPqPmXzFbUHcXMq-14" value="crm_cust_info" style="rounded=1;whiteSpace=wrap;html=1;fillStyle=solid;fillColor=#FFB570;fontColor=#000000;" parent="1" vertex="1">
          <mxGeometry x="197.5" y="180" width="105" height="40" as="geometry" />
        </mxCell>
        <mxCell id="H48lbSs6PlIa-w5kw-XM-11" style="edgeStyle=orthogonalEdgeStyle;rounded=0;orthogonalLoop=1;jettySize=auto;html=1;entryX=0;entryY=0.5;entryDx=0;entryDy=0;" parent="1" source="gVY9wtPqPmXzFbUHcXMq-15" target="H48lbSs6PlIa-w5kw-XM-4" edge="1">
          <mxGeometry relative="1" as="geometry" />
        </mxCell>
        <mxCell id="gVY9wtPqPmXzFbUHcXMq-15" value="erp_cust_az12" style="rounded=1;whiteSpace=wrap;html=1;fillStyle=solid;fillColor=#FFB570;fontColor=#000000;" parent="1" vertex="1">
          <mxGeometry x="197.5" y="360" width="105" height="40" as="geometry" />
        </mxCell>
        <mxCell id="H48lbSs6PlIa-w5kw-XM-12" style="edgeStyle=orthogonalEdgeStyle;rounded=0;orthogonalLoop=1;jettySize=auto;html=1;entryX=0;entryY=0.5;entryDx=0;entryDy=0;" parent="1" source="gVY9wtPqPmXzFbUHcXMq-16" target="H48lbSs6PlIa-w5kw-XM-5" edge="1">
          <mxGeometry relative="1" as="geometry" />
        </mxCell>
        <mxCell id="gVY9wtPqPmXzFbUHcXMq-16" value="erp_loc_a101" style="rounded=1;whiteSpace=wrap;html=1;fillStyle=solid;fillColor=#FFB570;fontColor=#000000;" parent="1" vertex="1">
          <mxGeometry x="197.5" y="410" width="105" height="40" as="geometry" />
        </mxCell>
        <mxCell id="H48lbSs6PlIa-w5kw-XM-13" style="edgeStyle=orthogonalEdgeStyle;rounded=0;orthogonalLoop=1;jettySize=auto;html=1;entryX=0;entryY=0.5;entryDx=0;entryDy=0;" parent="1" source="gVY9wtPqPmXzFbUHcXMq-17" target="H48lbSs6PlIa-w5kw-XM-6" edge="1">
          <mxGeometry relative="1" as="geometry" />
        </mxCell>
        <mxCell id="gVY9wtPqPmXzFbUHcXMq-17" value="erp_px_cat_g1v2" style="rounded=1;whiteSpace=wrap;html=1;fillStyle=solid;fillColor=#FFB570;fontColor=#000000;" parent="1" vertex="1">
          <mxGeometry x="197.5" y="460" width="105" height="40" as="geometry" />
        </mxCell>
        <mxCell id="Fz5hiR6GQDtzPZ51xnKj-9" style="rounded=0;orthogonalLoop=1;jettySize=auto;html=1;entryX=0;entryY=0.5;entryDx=0;entryDy=0;exitX=1;exitY=0.5;exitDx=0;exitDy=0;" edge="1" parent="1" source="H48lbSs6PlIa-w5kw-XM-1" target="Fz5hiR6GQDtzPZ51xnKj-3">
          <mxGeometry relative="1" as="geometry" />
        </mxCell>
        <mxCell id="H48lbSs6PlIa-w5kw-XM-1" value="crm_sales_details" style="rounded=1;whiteSpace=wrap;html=1;fillStyle=solid;fillColor=#FFFFFF;fontColor=#000000;" parent="1" vertex="1">
          <mxGeometry x="357.5" y="230" width="105" height="40" as="geometry" />
        </mxCell>
        <mxCell id="Fz5hiR6GQDtzPZ51xnKj-12" style="rounded=0;orthogonalLoop=1;jettySize=auto;html=1;entryX=0;entryY=0.5;entryDx=0;entryDy=0;exitX=1;exitY=0.5;exitDx=0;exitDy=0;" edge="1" parent="1" source="H48lbSs6PlIa-w5kw-XM-2" target="Fz5hiR6GQDtzPZ51xnKj-4">
          <mxGeometry relative="1" as="geometry" />
        </mxCell>
        <mxCell id="H48lbSs6PlIa-w5kw-XM-2" value="crm_prd_info" style="rounded=1;whiteSpace=wrap;html=1;fillStyle=solid;fillColor=#FFFFFF;fontColor=#000000;" parent="1" vertex="1">
          <mxGeometry x="357.5" y="280" width="105" height="40" as="geometry" />
        </mxCell>
        <mxCell id="Fz5hiR6GQDtzPZ51xnKj-18" style="rounded=0;orthogonalLoop=1;jettySize=auto;html=1;entryX=0;entryY=0.5;entryDx=0;entryDy=0;exitX=1;exitY=0.5;exitDx=0;exitDy=0;" edge="1" parent="1" source="H48lbSs6PlIa-w5kw-XM-3" target="Fz5hiR6GQDtzPZ51xnKj-5">
          <mxGeometry relative="1" as="geometry" />
        </mxCell>
        <mxCell id="H48lbSs6PlIa-w5kw-XM-3" value="crm_cust_info" style="rounded=1;whiteSpace=wrap;html=1;fillStyle=solid;fillColor=#FFFFFF;fontColor=#000000;" parent="1" vertex="1">
          <mxGeometry x="357.5" y="180" width="105" height="40" as="geometry" />
        </mxCell>
        <mxCell id="Fz5hiR6GQDtzPZ51xnKj-13" style="rounded=0;orthogonalLoop=1;jettySize=auto;html=1;entryX=0;entryY=0.5;entryDx=0;entryDy=0;exitX=1;exitY=0.5;exitDx=0;exitDy=0;" edge="1" parent="1" source="H48lbSs6PlIa-w5kw-XM-4" target="Fz5hiR6GQDtzPZ51xnKj-5">
          <mxGeometry relative="1" as="geometry" />
        </mxCell>
        <mxCell id="H48lbSs6PlIa-w5kw-XM-4" value="erp_cust_az12" style="rounded=1;whiteSpace=wrap;html=1;fillStyle=solid;fillColor=#FFFFFF;fontColor=#000000;" parent="1" vertex="1">
          <mxGeometry x="357.5" y="360" width="105" height="40" as="geometry" />
        </mxCell>
        <mxCell id="H48lbSs6PlIa-w5kw-XM-5" value="erp_loc_a101" style="rounded=1;whiteSpace=wrap;html=1;fillStyle=solid;fillColor=#FFFFFF;fontColor=#000000;" parent="1" vertex="1">
          <mxGeometry x="357.5" y="410" width="105" height="40" as="geometry" />
        </mxCell>
        <mxCell id="Fz5hiR6GQDtzPZ51xnKj-17" style="rounded=0;orthogonalLoop=1;jettySize=auto;html=1;entryX=0;entryY=0.5;entryDx=0;entryDy=0;exitX=1;exitY=0.5;exitDx=0;exitDy=0;" edge="1" parent="1" source="H48lbSs6PlIa-w5kw-XM-6" target="Fz5hiR6GQDtzPZ51xnKj-4">
          <mxGeometry relative="1" as="geometry" />
        </mxCell>
        <mxCell id="H48lbSs6PlIa-w5kw-XM-6" value="erp_px_cat_g1v2" style="rounded=1;whiteSpace=wrap;html=1;fillStyle=solid;fillColor=#FFFFFF;fontColor=#000000;" parent="1" vertex="1">
          <mxGeometry x="357.5" y="460" width="105" height="40" as="geometry" />
        </mxCell>
        <mxCell id="Fz5hiR6GQDtzPZ51xnKj-1" value="" style="rounded=1;whiteSpace=wrap;html=1;fillStyle=auto;fillColor=none;fontColor=#000000;strokeColor=#B09500;" vertex="1" parent="1">
          <mxGeometry x="520" y="150" width="120" height="420" as="geometry" />
        </mxCell>
        <mxCell id="Fz5hiR6GQDtzPZ51xnKj-2" value="Gold Layer" style="rounded=1;whiteSpace=wrap;html=1;fillStyle=auto;fillColor=#FFFF00;fontColor=#000000;strokeColor=#FFFF00;" vertex="1" parent="1">
          <mxGeometry x="520" y="100" width="120" height="40" as="geometry" />
        </mxCell>
        <mxCell id="Fz5hiR6GQDtzPZ51xnKj-3" value="fact_sales" style="rounded=1;whiteSpace=wrap;html=1;fillStyle=solid;fillColor=#FFFF00;fontColor=#000000;strokeColor=#FFFF00;" vertex="1" parent="1">
          <mxGeometry x="527.5" y="210" width="105" height="40" as="geometry" />
        </mxCell>
        <mxCell id="Fz5hiR6GQDtzPZ51xnKj-4" value="dim_products" style="rounded=1;whiteSpace=wrap;html=1;fillStyle=solid;fillColor=#FFFF00;fontColor=#000000;strokeColor=#FFFF00;" vertex="1" parent="1">
          <mxGeometry x="527.5" y="390" width="105" height="40" as="geometry" />
        </mxCell>
        <mxCell id="Fz5hiR6GQDtzPZ51xnKj-5" value="dim_customers" style="rounded=1;whiteSpace=wrap;html=1;fillStyle=solid;fillColor=#FFFF00;fontColor=#000000;strokeColor=#FFFF00;" vertex="1" parent="1">
          <mxGeometry x="527.5" y="320" width="105" height="40" as="geometry" />
        </mxCell>
        <mxCell id="Fz5hiR6GQDtzPZ51xnKj-14" style="rounded=0;orthogonalLoop=1;jettySize=auto;html=1;exitX=1;exitY=0.5;exitDx=0;exitDy=0;entryX=0.005;entryY=0.613;entryDx=0;entryDy=0;entryPerimeter=0;" edge="1" parent="1" source="H48lbSs6PlIa-w5kw-XM-5" target="Fz5hiR6GQDtzPZ51xnKj-5">
          <mxGeometry relative="1" as="geometry">
            <mxPoint x="462.5" y="435" as="sourcePoint" />
            <mxPoint x="500" y="237.67743510584677" as="targetPoint" />
          </mxGeometry>
        </mxCell>
      </root>
    </mxGraphModel>
  </diagram>
</mxfile>
